<?xml version="1.0" encoding="utf-8"?>
<!-- Generator: Adobe Illustrator 17.0.0, SVG Export Plug-In . SVG Version: 6.00 Build 0)  -->
<!DOCTYPE svg PUBLIC "-//W3C//DTD SVG 1.1//EN" "http://www.w3.org/Graphics/SVG/1.1/DTD/svg11.dtd">
<svg version="1.1" id="Camada_1" xmlns="http://www.w3.org/2000/svg" xmlns:xlink="http://www.w3.org/1999/xlink" x="0px" y="0px"
	 width="50px" height="48px" viewBox="0 0 50 48" enable-background="new 0 0 50 48" xml:space="preserve">
<title>FRONT END</title>
<desc>Created with Sketch.</desc>
<g>
	<path fill="#04233A" d="M49.999,3.6C49.994,1.607,48.396,0,46.424,0H20.238h-3.571h-3.571H5.952H3.576
		c-0.421,0-0.82,0.086-1.195,0.222C1.002,0.719,0.005,2.036,0.001,3.6C0.001,3.602,0,3.606,0,3.608V13.2V18v26.392
		C0,46.388,1.601,48,3.576,48h42.848C48.393,48,50,46.385,50,44.392V18V3.608C50,3.606,49.999,3.602,49.999,3.6z M47.619,18v26.392
		c0,0.666-0.539,1.208-1.195,1.208H3.576c-0.662,0-1.195-0.538-1.195-1.208V18v-4.8V12h3.571h7.143h3.571h3.571H35.19h12.429V18z
		 M47.619,9.6H20.238h-3.571h-3.571H5.952H2.381V3.608c0-0.004,0.001-0.006,0.001-0.008c0.005-0.661,0.54-1.2,1.194-1.2h2.376h7.143
		h3.571h3.571h26.186c0.658,0,1.189,0.534,1.194,1.2c0,0.002,0.001,0.005,0.001,0.008V9.6z"/>
	<ellipse fill="#04233A" cx="5.952" cy="6" rx="1.19" ry="1.2"/>
	<ellipse fill="#04233A" cx="9.524" cy="6" rx="1.19" ry="1.2"/>
	<ellipse fill="#04233A" cx="13.095" cy="6" rx="1.19" ry="1.2"/>
	<path fill="#04233A" d="M35.365,20.751c-0.052-0.052-0.118-0.077-0.175-0.118c-0.464-0.323-1.095-0.3-1.508,0.118
		c-0.465,0.469-0.465,1.228,0,1.697l1.508,1.52l3.536,3.564l-3.536,3.566l-1.508,1.52c-0.465,0.467-0.465,1.228,0,1.697
		c0.413,0.415,1.044,0.442,1.508,0.116c0.057-0.04,0.123-0.064,0.175-0.116l5.887-5.935c0.465-0.468,0.465-1.228,0-1.697
		L35.365,20.751z"/>
	<path fill="#04233A" d="M28.481,16.882c-0.383-0.151-0.785-0.07-1.1,0.15c-0.188,0.131-0.354,0.3-0.443,0.53L26.769,18
		l-4.018,10.346l-3.621,9.331c-0.24,0.617,0.062,1.313,0.675,1.554s1.304-0.064,1.543-0.679l1.404-3.619l4.63-11.927l1.774-4.57
		c0.056-0.144,0.076-0.292,0.076-0.437C29.231,17.52,28.951,17.067,28.481,16.882z"/>
	<path fill="#04233A" d="M16.45,22.448c0.465-0.469,0.465-1.228,0-1.697c-0.466-0.469-1.218-0.469-1.683,0l-1.671,1.685L8.88,26.684
		c-0.466,0.469-0.466,1.229,0,1.697l4.215,4.249l1.671,1.686c0.465,0.468,1.218,0.468,1.683,0c0.465-0.469,0.465-1.23,0-1.697
		l-3.355-3.383l-1.69-1.704l1.69-1.703L16.45,22.448z"/>
</g>
</svg>
