<?xml version="1.0" encoding="utf-8"?>
<!-- Generator: Adobe Illustrator 17.0.0, SVG Export Plug-In . SVG Version: 6.00 Build 0)  -->
<!DOCTYPE svg PUBLIC "-//W3C//DTD SVG 1.1//EN" "http://www.w3.org/Graphics/SVG/1.1/DTD/svg11.dtd">
<svg version="1.1" id="Camada_1" xmlns="http://www.w3.org/2000/svg" xmlns:xlink="http://www.w3.org/1999/xlink" x="0px" y="0px"
	 width="48px" height="48px" viewBox="0 0 48 48" enable-background="new 0 0 48 48" xml:space="preserve">
<title>UX/UI</title>
<desc>Created with Sketch.</desc>
<g id="Website">
	<g id="Home" transform="translate(-298.000000, -1441.000000)">
		<path id="UX_x2F_UI" fill="#04233A" d="M337.929,1485.067l4.204-4.203l1.261,5.464L337.929,1485.067z M323.625,1471.333
			l-1.591-1.591l-4.774-4.774l-1.591-1.591l-9.849-9.849l4.773-4.774l9.849,9.849l1.592,1.591l4.773,4.774l1.591,1.591
			l12.429,12.429l-4.773,4.774L323.625,1471.333z M307.853,1483.922l-3.77,1.616l-2.619-2.619l1.617-3.773l12.587-12.586
			l4.774,4.774L307.853,1483.922z M301.039,1448.748c-0.432-0.433-0.431-1.147,0.007-1.585l3.182-3.182
			c0.442-0.441,1.149-0.442,1.585-0.007l3.189,3.189l-4.774,4.774L301.039,1448.748z M335.394,1446.834l4.774,4.773l-11.77,11.771
			l-4.773-4.775L335.394,1446.834z M341.363,1443.251c0.003-0.002-0.006-0.002,0.003,0.007l2.378,2.377
			c0.007,0.007,0.007,0.002,0.007,0.003l-3.184,3.183l-2.387-2.386L341.363,1443.251z M344.01,1478.988l-14.02-14.02l9.352-9.352
			l0.877,0.878c0.44,0.44,0.44,1.152-0.002,1.594l-4.415,4.414c-0.439,0.44-0.439,1.152,0,1.591c0.44,0.44,1.152,0.44,1.591,0
			l4.415-4.413c1.321-1.321,1.322-3.459,0.003-4.777l-0.878-0.878l0.826-0.827l1.591-1.591l-1.193-1.193l3.184-3.184
			c0.883-0.885,0.874-2.304-0.007-3.186l-2.378-2.378c-0.89-0.89-2.308-0.883-3.185-0.006l-3.184,3.184l-1.194-1.194l-1.591,1.591
			h-0.001v0.001l-11.768,11.768l-14.63-14.628c-1.318-1.317-3.449-1.312-4.767,0.007l-3.182,3.182
			c-1.314,1.314-1.322,3.453-0.007,4.767l3.189,3.189l0.304,0.304l1.287,1.288l9.849,9.849l-12.895,12.895l-2.387,5.57l1.591,1.591
			L298,1487.41l1.591,1.591l2.387-2.387l1.592,1.591l5.57-2.386l12.895-12.895l12.428,12.429l1.591,1.591l8.151,1.881
			c1.202,0.277,1.967-0.477,1.687-1.688L344.01,1478.988z"/>
	</g>
</g>
</svg>
