<?xml version="1.0" encoding="utf-8"?>
<!-- Generator: Adobe Illustrator 17.0.0, SVG Export Plug-In . SVG Version: 6.00 Build 0)  -->
<!DOCTYPE svg PUBLIC "-//W3C//DTD SVG 1.1//EN" "http://www.w3.org/Graphics/SVG/1.1/DTD/svg11.dtd">
<svg version="1.1" id="Camada_1" xmlns="http://www.w3.org/2000/svg" xmlns:xlink="http://www.w3.org/1999/xlink" x="0px" y="0px"
	 width="50.5px" height="49.125px" viewBox="0 0 50.5 49.125" enable-background="new 0 0 50.5 49.125" xml:space="preserve">
<title>Shape</title>
<desc>Created with Sketch.</desc>
<g>
	<polyline fill="#565656" points="23.843,29.99 33.127,36.102 23.837,42.214 	"/>
	<polyline fill="#FFFFFF" points="24.173,16.093 14.25,8.205 14.25,28.348 33.25,36.045 33.25,8.562 	"/>
	<g>
		<polygon fill="#CECECE" points="24.25,15.892 24.25,32.219 33.25,36.045 33.25,8.266 		"/>
		<polygon fill="#CECECE" points="34.096,8.251 34.096,8.266 34.113,8.251 		"/>
	</g>
	<path fill="#FFFFFF" d="M45.137,3.258c1.231,0,2.113,0.625,2.113,1.795v38.973c0,1.17,0.385,1.537-0.847,1.537H5.401
		C4.17,45.562,3.25,45.195,3.25,44.025V5.053c0-1.171,0.92-1.491,2.151-1.491H45.25 M46.403,0.562H5.401
		c-2.282,0-5.151,2.322-5.151,4.491v38.973c0,2.169,2.869,4.537,5.151,4.537h41.002c2.282,0,3.847-2.368,3.847-4.537V5.053
		c0-2.169-1.879-4.491-4.16-4.491H46.403z"/>
</g>
</svg>
