<?xml version="1.0" encoding="utf-8"?>
<!-- Generator: Adobe Illustrator 17.0.0, SVG Export Plug-In . SVG Version: 6.00 Build 0)  -->
<!DOCTYPE svg PUBLIC "-//W3C//DTD SVG 1.1//EN" "http://www.w3.org/Graphics/SVG/1.1/DTD/svg11.dtd">
<svg version="1.1" id="Camada_1" xmlns="http://www.w3.org/2000/svg" xmlns:xlink="http://www.w3.org/1999/xlink" x="0px" y="0px"
	 width="50.5px" height="49.125px" viewBox="0 0 50.5 49.125" enable-background="new 0 0 50.5 49.125" xml:space="preserve">
<title>Shape</title>
<desc>Created with Sketch.</desc>
<polyline fill="#565656" points="23.843,29.99 33.127,36.102 23.837,42.214 "/>
<polyline fill="#FFFFFF" points="24.173,16.093 14.25,8.205 14.25,28.348 33.25,36.045 33.25,8.562 "/>
<g>
	<polygon fill="#CECECE" points="24.25,15.892 24.25,32.219 33.25,36.045 33.25,8.266 	"/>
	<polygon fill="#CECECE" points="34.096,8.251 34.096,8.266 34.113,8.251 	"/>
</g>
<path fill="none" stroke="#FFFFFF" stroke-miterlimit="10" d="M49,42.643c0,3.131-2.538,5.669-5.669,5.669H7.169
	c-3.131,0-5.669-2.538-5.669-5.669V6.482c0-3.131,2.538-5.669,5.669-5.669h36.162C46.462,0.813,49,3.351,49,6.482V42.643z"/>
</svg>
